<mxfile host="app.diagrams.net" modified="2024-05-20T08:55:28.107Z" agent="Mozilla/5.0 (Macintosh; Intel Mac OS X 10_15_7) AppleWebKit/537.36 (KHTML, like Gecko) Chrome/123.0.0.0 Safari/537.36" etag="8HyV55HGuBZK7OX7FycJ" version="24.4.4" type="github" pages="2">
  <diagram id="C5RBs43oDa-KdzZeNtuy" name="HW table&amp;고정형">
    <mxGraphModel dx="1234" dy="1052" grid="1" gridSize="10" guides="1" tooltips="1" connect="1" arrows="1" fold="1" page="1" pageScale="1" pageWidth="827" pageHeight="1169" math="0" shadow="0">
      <root>
        <mxCell id="WIyWlLk6GJQsqaUBKTNV-0" />
        <mxCell id="WIyWlLk6GJQsqaUBKTNV-1" parent="WIyWlLk6GJQsqaUBKTNV-0" />
        <mxCell id="WIyWlLk6GJQsqaUBKTNV-2" value="" style="rounded=0;html=1;jettySize=auto;orthogonalLoop=1;fontSize=11;endArrow=block;endFill=0;endSize=8;strokeWidth=1;shadow=0;labelBackgroundColor=none;edgeStyle=orthogonalEdgeStyle;" parent="WIyWlLk6GJQsqaUBKTNV-1" source="WIyWlLk6GJQsqaUBKTNV-3" target="KDTUvcCnBOLA0Wjoknmj-1" edge="1">
          <mxGeometry relative="1" as="geometry">
            <mxPoint x="377.5" y="354" as="targetPoint" />
          </mxGeometry>
        </mxCell>
        <mxCell id="WIyWlLk6GJQsqaUBKTNV-3" value="&lt;span style=&quot;font-size: 8.1pt; font-family: Candara; letter-spacing: -0.33pt;&quot;&gt;Request for&lt;br&gt;Carry Out Shared IT end devices and accessories (AMS)&lt;/span&gt;" style="rounded=1;whiteSpace=wrap;html=1;fontSize=12;glass=0;strokeWidth=1;shadow=0;fillColor=#dae8fc;strokeColor=#6c8ebf;" parent="WIyWlLk6GJQsqaUBKTNV-1" vertex="1">
          <mxGeometry x="288.75" y="230" width="177.5" height="74" as="geometry" />
        </mxCell>
        <mxCell id="WIyWlLk6GJQsqaUBKTNV-9" value="No" style="edgeStyle=orthogonalEdgeStyle;rounded=0;html=1;jettySize=auto;orthogonalLoop=1;fontSize=11;endArrow=block;endFill=0;endSize=8;strokeWidth=1;shadow=0;labelBackgroundColor=none;" parent="WIyWlLk6GJQsqaUBKTNV-1" source="WIyWlLk6GJQsqaUBKTNV-10" target="WIyWlLk6GJQsqaUBKTNV-12" edge="1">
          <mxGeometry x="-0.9858" y="9" relative="1" as="geometry">
            <mxPoint y="1" as="offset" />
          </mxGeometry>
        </mxCell>
        <mxCell id="uZbULOSG4ekhpRQ3Gt03-11" style="edgeStyle=orthogonalEdgeStyle;rounded=0;orthogonalLoop=1;jettySize=auto;html=1;exitX=1;exitY=0.5;exitDx=0;exitDy=0;entryX=0;entryY=0.5;entryDx=0;entryDy=0;" edge="1" parent="WIyWlLk6GJQsqaUBKTNV-1" source="WIyWlLk6GJQsqaUBKTNV-10" target="uZbULOSG4ekhpRQ3Gt03-8">
          <mxGeometry relative="1" as="geometry">
            <Array as="points">
              <mxPoint x="428" y="603" />
              <mxPoint x="428" y="741" />
            </Array>
          </mxGeometry>
        </mxCell>
        <mxCell id="uZbULOSG4ekhpRQ3Gt03-18" style="edgeStyle=orthogonalEdgeStyle;rounded=0;orthogonalLoop=1;jettySize=auto;html=1;exitX=0.5;exitY=1;exitDx=0;exitDy=0;" edge="1" parent="WIyWlLk6GJQsqaUBKTNV-1" source="WIyWlLk6GJQsqaUBKTNV-10" target="uZbULOSG4ekhpRQ3Gt03-17">
          <mxGeometry relative="1" as="geometry" />
        </mxCell>
        <mxCell id="WIyWlLk6GJQsqaUBKTNV-10" value="FX9600" style="rhombus;whiteSpace=wrap;html=1;shadow=0;fontFamily=Helvetica;fontSize=12;align=center;strokeWidth=1;spacing=6;spacingTop=-4;fillColor=#fff2cc;strokeColor=#d6b656;" parent="WIyWlLk6GJQsqaUBKTNV-1" vertex="1">
          <mxGeometry x="328" y="564" width="99" height="77" as="geometry" />
        </mxCell>
        <mxCell id="WIyWlLk6GJQsqaUBKTNV-12" value="Incident" style="rounded=1;whiteSpace=wrap;html=1;fontSize=12;glass=0;strokeWidth=1;shadow=0;fillColor=#f8cecc;strokeColor=#b85450;" parent="WIyWlLk6GJQsqaUBKTNV-1" vertex="1">
          <mxGeometry x="538" y="584.5" width="120" height="37" as="geometry" />
        </mxCell>
        <mxCell id="uZbULOSG4ekhpRQ3Gt03-0" style="edgeStyle=orthogonalEdgeStyle;rounded=0;orthogonalLoop=1;jettySize=auto;html=1;exitX=0.5;exitY=1;exitDx=0;exitDy=0;" edge="1" parent="WIyWlLk6GJQsqaUBKTNV-1" source="KDTUvcCnBOLA0Wjoknmj-1" target="WIyWlLk6GJQsqaUBKTNV-10">
          <mxGeometry relative="1" as="geometry" />
        </mxCell>
        <mxCell id="KDTUvcCnBOLA0Wjoknmj-1" value="Requested Asset" style="rounded=1;whiteSpace=wrap;html=1;fontSize=12;glass=0;strokeWidth=1;shadow=0;fillColor=#dae8fc;strokeColor=#6c8ebf;" vertex="1" parent="WIyWlLk6GJQsqaUBKTNV-1">
          <mxGeometry x="292.5" y="404" width="170" height="58.5" as="geometry" />
        </mxCell>
        <mxCell id="KDTUvcCnBOLA0Wjoknmj-15" value="&lt;span style=&quot;font-size: 8.1pt; font-family: Candara; letter-spacing: -0.33pt;&quot;&gt;Request for&lt;br&gt;Carry Out Shared IT end devices and accessories (AMS)&lt;/span&gt;" style="swimlane;fontStyle=0;childLayout=stackLayout;horizontal=1;startSize=30;horizontalStack=0;resizeParent=1;resizeParentMax=0;resizeLast=0;collapsible=1;marginBottom=0;whiteSpace=wrap;html=1;fillColor=#dae8fc;strokeColor=#6c8ebf;" vertex="1" parent="WIyWlLk6GJQsqaUBKTNV-1">
          <mxGeometry x="20" y="244" width="238" height="60" as="geometry" />
        </mxCell>
        <mxCell id="KDTUvcCnBOLA0Wjoknmj-16" value="52-73: Catalog Item" style="text;strokeColor=none;fillColor=none;align=left;verticalAlign=middle;spacingLeft=4;spacingRight=4;overflow=hidden;points=[[0,0.5],[1,0.5]];portConstraint=eastwest;rotatable=0;whiteSpace=wrap;html=1;" vertex="1" parent="KDTUvcCnBOLA0Wjoknmj-15">
          <mxGeometry y="30" width="238" height="30" as="geometry" />
        </mxCell>
        <mxCell id="KDTUvcCnBOLA0Wjoknmj-21" value="Approve" style="text;html=1;align=center;verticalAlign=middle;resizable=0;points=[];autosize=1;strokeColor=none;fillColor=none;" vertex="1" parent="WIyWlLk6GJQsqaUBKTNV-1">
          <mxGeometry x="378" y="344" width="70" height="30" as="geometry" />
        </mxCell>
        <mxCell id="hU0YHVSSX7WH9TLBNoAS-5" value="Requested Asset" style="swimlane;fontStyle=0;childLayout=stackLayout;horizontal=1;startSize=30;horizontalStack=0;resizeParent=1;resizeParentMax=0;resizeLast=0;collapsible=1;marginBottom=0;whiteSpace=wrap;html=1;fillColor=#dae8fc;strokeColor=#6c8ebf;" vertex="1" parent="WIyWlLk6GJQsqaUBKTNV-1">
          <mxGeometry x="478" y="394" width="140" height="90" as="geometry" />
        </mxCell>
        <mxCell id="hU0YHVSSX7WH9TLBNoAS-6" value="3: UI" style="text;strokeColor=none;fillColor=none;align=left;verticalAlign=middle;spacingLeft=4;spacingRight=4;overflow=hidden;points=[[0,0.5],[1,0.5]];portConstraint=eastwest;rotatable=0;whiteSpace=wrap;html=1;" vertex="1" parent="hU0YHVSSX7WH9TLBNoAS-5">
          <mxGeometry y="30" width="140" height="30" as="geometry" />
        </mxCell>
        <mxCell id="hU0YHVSSX7WH9TLBNoAS-7" value="22-23: Business Rule" style="text;strokeColor=none;fillColor=none;align=left;verticalAlign=middle;spacingLeft=4;spacingRight=4;overflow=hidden;points=[[0,0.5],[1,0.5]];portConstraint=eastwest;rotatable=0;whiteSpace=wrap;html=1;" vertex="1" parent="hU0YHVSSX7WH9TLBNoAS-5">
          <mxGeometry y="60" width="140" height="30" as="geometry" />
        </mxCell>
        <mxCell id="hU0YHVSSX7WH9TLBNoAS-14" value="FX9600" style="swimlane;fontStyle=0;childLayout=stackLayout;horizontal=1;startSize=30;horizontalStack=0;resizeParent=1;resizeParentMax=0;resizeLast=0;collapsible=1;marginBottom=0;whiteSpace=wrap;html=1;fillColor=#fff2cc;strokeColor=#d6b656;" vertex="1" parent="WIyWlLk6GJQsqaUBKTNV-1">
          <mxGeometry x="150" y="557.5" width="168" height="150" as="geometry" />
        </mxCell>
        <mxCell id="hU0YHVSSX7WH9TLBNoAS-15" value="17-18: REST API" style="text;strokeColor=none;fillColor=none;align=left;verticalAlign=middle;spacingLeft=4;spacingRight=4;overflow=hidden;points=[[0,0.5],[1,0.5]];portConstraint=eastwest;rotatable=0;whiteSpace=wrap;html=1;" vertex="1" parent="hU0YHVSSX7WH9TLBNoAS-14">
          <mxGeometry y="30" width="168" height="30" as="geometry" />
        </mxCell>
        <mxCell id="UrBN56TE2gtHwviRt6kK-2" value="49-50: System Properties" style="text;strokeColor=none;fillColor=none;align=left;verticalAlign=middle;spacingLeft=4;spacingRight=4;overflow=hidden;points=[[0,0.5],[1,0.5]];portConstraint=eastwest;rotatable=0;whiteSpace=wrap;html=1;" vertex="1" parent="hU0YHVSSX7WH9TLBNoAS-14">
          <mxGeometry y="60" width="168" height="30" as="geometry" />
        </mxCell>
        <mxCell id="hU0YHVSSX7WH9TLBNoAS-16" value="22-23: Business Rule" style="text;strokeColor=none;fillColor=none;align=left;verticalAlign=middle;spacingLeft=4;spacingRight=4;overflow=hidden;points=[[0,0.5],[1,0.5]];portConstraint=eastwest;rotatable=0;whiteSpace=wrap;html=1;" vertex="1" parent="hU0YHVSSX7WH9TLBNoAS-14">
          <mxGeometry y="90" width="168" height="30" as="geometry" />
        </mxCell>
        <mxCell id="uZbULOSG4ekhpRQ3Gt03-16" value="41: Event Registry" style="text;strokeColor=none;fillColor=none;align=left;verticalAlign=middle;spacingLeft=4;spacingRight=4;overflow=hidden;points=[[0,0.5],[1,0.5]];portConstraint=eastwest;rotatable=0;whiteSpace=wrap;html=1;" vertex="1" parent="hU0YHVSSX7WH9TLBNoAS-14">
          <mxGeometry y="120" width="168" height="30" as="geometry" />
        </mxCell>
        <mxCell id="uZbULOSG4ekhpRQ3Gt03-8" value="Email" style="rounded=1;whiteSpace=wrap;html=1;fontSize=12;glass=0;strokeWidth=1;shadow=0;fillColor=#f8cecc;strokeColor=#b85450;" vertex="1" parent="WIyWlLk6GJQsqaUBKTNV-1">
          <mxGeometry x="529" y="722" width="120" height="37" as="geometry" />
        </mxCell>
        <mxCell id="uZbULOSG4ekhpRQ3Gt03-12" value="Incident" style="swimlane;fontStyle=0;childLayout=stackLayout;horizontal=1;startSize=30;horizontalStack=0;resizeParent=1;resizeParentMax=0;resizeLast=0;collapsible=1;marginBottom=0;whiteSpace=wrap;html=1;fillColor=#f8cecc;strokeColor=#b85450;" vertex="1" parent="WIyWlLk6GJQsqaUBKTNV-1">
          <mxGeometry x="669" y="554" width="140" height="90" as="geometry" />
        </mxCell>
        <mxCell id="uZbULOSG4ekhpRQ3Gt03-13" value="4: UI" style="text;strokeColor=none;fillColor=none;align=left;verticalAlign=middle;spacingLeft=4;spacingRight=4;overflow=hidden;points=[[0,0.5],[1,0.5]];portConstraint=eastwest;rotatable=0;whiteSpace=wrap;html=1;" vertex="1" parent="uZbULOSG4ekhpRQ3Gt03-12">
          <mxGeometry y="30" width="140" height="30" as="geometry" />
        </mxCell>
        <mxCell id="uZbULOSG4ekhpRQ3Gt03-14" value="6-7:Script Action" style="text;strokeColor=none;fillColor=none;align=left;verticalAlign=middle;spacingLeft=4;spacingRight=4;overflow=hidden;points=[[0,0.5],[1,0.5]];portConstraint=eastwest;rotatable=0;whiteSpace=wrap;html=1;" vertex="1" parent="uZbULOSG4ekhpRQ3Gt03-12">
          <mxGeometry y="60" width="140" height="30" as="geometry" />
        </mxCell>
        <mxCell id="uZbULOSG4ekhpRQ3Gt03-32" style="edgeStyle=orthogonalEdgeStyle;rounded=0;orthogonalLoop=1;jettySize=auto;html=1;exitX=0.5;exitY=1;exitDx=0;exitDy=0;" edge="1" parent="WIyWlLk6GJQsqaUBKTNV-1" source="uZbULOSG4ekhpRQ3Gt03-17" target="uZbULOSG4ekhpRQ3Gt03-31">
          <mxGeometry relative="1" as="geometry" />
        </mxCell>
        <mxCell id="uZbULOSG4ekhpRQ3Gt03-34" style="edgeStyle=orthogonalEdgeStyle;rounded=0;orthogonalLoop=1;jettySize=auto;html=1;exitX=1;exitY=0.5;exitDx=0;exitDy=0;entryX=0;entryY=0.5;entryDx=0;entryDy=0;" edge="1" parent="WIyWlLk6GJQsqaUBKTNV-1" source="uZbULOSG4ekhpRQ3Gt03-17" target="uZbULOSG4ekhpRQ3Gt03-33">
          <mxGeometry relative="1" as="geometry" />
        </mxCell>
        <mxCell id="uZbULOSG4ekhpRQ3Gt03-17" value="Check carry out period" style="rhombus;whiteSpace=wrap;html=1;shadow=0;fontFamily=Helvetica;fontSize=12;align=center;strokeWidth=1;spacing=6;spacingTop=-4;fillColor=#fff2cc;strokeColor=#d6b656;" vertex="1" parent="WIyWlLk6GJQsqaUBKTNV-1">
          <mxGeometry x="328" y="794" width="99" height="77" as="geometry" />
        </mxCell>
        <mxCell id="uZbULOSG4ekhpRQ3Gt03-20" value="Email" style="swimlane;fontStyle=0;childLayout=stackLayout;horizontal=1;startSize=30;horizontalStack=0;resizeParent=1;resizeParentMax=0;resizeLast=0;collapsible=1;marginBottom=0;whiteSpace=wrap;html=1;fillColor=#f8cecc;strokeColor=#b85450;" vertex="1" parent="WIyWlLk6GJQsqaUBKTNV-1">
          <mxGeometry x="669" y="710.5" width="140" height="60" as="geometry" />
        </mxCell>
        <mxCell id="uZbULOSG4ekhpRQ3Gt03-21" value="32-34: Notification" style="text;strokeColor=none;fillColor=none;align=left;verticalAlign=middle;spacingLeft=4;spacingRight=4;overflow=hidden;points=[[0,0.5],[1,0.5]];portConstraint=eastwest;rotatable=0;whiteSpace=wrap;html=1;" vertex="1" parent="uZbULOSG4ekhpRQ3Gt03-20">
          <mxGeometry y="30" width="140" height="30" as="geometry" />
        </mxCell>
        <mxCell id="uZbULOSG4ekhpRQ3Gt03-23" value="Check carry out period" style="swimlane;fontStyle=0;childLayout=stackLayout;horizontal=1;startSize=30;horizontalStack=0;resizeParent=1;resizeParentMax=0;resizeLast=0;collapsible=1;marginBottom=0;whiteSpace=wrap;html=1;fillColor=#fff2cc;strokeColor=#d6b656;" vertex="1" parent="WIyWlLk6GJQsqaUBKTNV-1">
          <mxGeometry x="152.5" y="802.5" width="140" height="60" as="geometry" />
        </mxCell>
        <mxCell id="uZbULOSG4ekhpRQ3Gt03-24" value="38: Scheduled Job" style="text;strokeColor=none;fillColor=none;align=left;verticalAlign=middle;spacingLeft=4;spacingRight=4;overflow=hidden;points=[[0,0.5],[1,0.5]];portConstraint=eastwest;rotatable=0;whiteSpace=wrap;html=1;" vertex="1" parent="uZbULOSG4ekhpRQ3Gt03-23">
          <mxGeometry y="30" width="140" height="30" as="geometry" />
        </mxCell>
        <mxCell id="uZbULOSG4ekhpRQ3Gt03-29" value="Check end date" style="swimlane;fontStyle=0;childLayout=stackLayout;horizontal=1;startSize=30;horizontalStack=0;resizeParent=1;resizeParentMax=0;resizeLast=0;collapsible=1;marginBottom=0;whiteSpace=wrap;html=1;fillColor=#fff2cc;strokeColor=#d6b656;" vertex="1" parent="WIyWlLk6GJQsqaUBKTNV-1">
          <mxGeometry x="152.5" y="1022.5" width="140" height="90" as="geometry" />
        </mxCell>
        <mxCell id="uZbULOSG4ekhpRQ3Gt03-30" value="39: Scheduled Job" style="text;strokeColor=none;fillColor=none;align=left;verticalAlign=middle;spacingLeft=4;spacingRight=4;overflow=hidden;points=[[0,0.5],[1,0.5]];portConstraint=eastwest;rotatable=0;whiteSpace=wrap;html=1;" vertex="1" parent="uZbULOSG4ekhpRQ3Gt03-29">
          <mxGeometry y="30" width="140" height="30" as="geometry" />
        </mxCell>
        <mxCell id="uZbULOSG4ekhpRQ3Gt03-45" value="42-43: Event Registry" style="text;strokeColor=none;fillColor=none;align=left;verticalAlign=middle;spacingLeft=4;spacingRight=4;overflow=hidden;points=[[0,0.5],[1,0.5]];portConstraint=eastwest;rotatable=0;whiteSpace=wrap;html=1;" vertex="1" parent="uZbULOSG4ekhpRQ3Gt03-29">
          <mxGeometry y="60" width="140" height="30" as="geometry" />
        </mxCell>
        <mxCell id="uZbULOSG4ekhpRQ3Gt03-39" style="edgeStyle=orthogonalEdgeStyle;rounded=0;orthogonalLoop=1;jettySize=auto;html=1;exitX=1;exitY=0.5;exitDx=0;exitDy=0;entryX=0;entryY=0.5;entryDx=0;entryDy=0;" edge="1" parent="WIyWlLk6GJQsqaUBKTNV-1" source="uZbULOSG4ekhpRQ3Gt03-31" target="uZbULOSG4ekhpRQ3Gt03-36">
          <mxGeometry relative="1" as="geometry" />
        </mxCell>
        <mxCell id="uZbULOSG4ekhpRQ3Gt03-31" value="Check end date" style="rhombus;whiteSpace=wrap;html=1;shadow=0;fontFamily=Helvetica;fontSize=12;align=center;strokeWidth=1;spacing=6;spacingTop=-4;fillColor=#fff2cc;strokeColor=#d6b656;" vertex="1" parent="WIyWlLk6GJQsqaUBKTNV-1">
          <mxGeometry x="328" y="1014" width="99" height="77" as="geometry" />
        </mxCell>
        <mxCell id="uZbULOSG4ekhpRQ3Gt03-33" value="Update export status change" style="rounded=1;whiteSpace=wrap;html=1;fontSize=12;glass=0;strokeWidth=1;shadow=0;fillColor=#f8cecc;strokeColor=#b85450;" vertex="1" parent="WIyWlLk6GJQsqaUBKTNV-1">
          <mxGeometry x="528" y="812.5" width="150" height="40" as="geometry" />
        </mxCell>
        <mxCell id="uZbULOSG4ekhpRQ3Gt03-35" value="Yes" style="text;html=1;align=center;verticalAlign=middle;resizable=0;points=[];autosize=1;strokeColor=none;fillColor=none;" vertex="1" parent="WIyWlLk6GJQsqaUBKTNV-1">
          <mxGeometry x="458" y="832.5" width="40" height="30" as="geometry" />
        </mxCell>
        <mxCell id="uZbULOSG4ekhpRQ3Gt03-36" value="Email" style="rounded=1;whiteSpace=wrap;html=1;fontSize=12;glass=0;strokeWidth=1;shadow=0;fillColor=#f8cecc;strokeColor=#b85450;" vertex="1" parent="WIyWlLk6GJQsqaUBKTNV-1">
          <mxGeometry x="528" y="1034" width="120" height="37" as="geometry" />
        </mxCell>
        <mxCell id="uZbULOSG4ekhpRQ3Gt03-37" value="Yes" style="text;html=1;align=center;verticalAlign=middle;resizable=0;points=[];autosize=1;strokeColor=none;fillColor=none;" vertex="1" parent="WIyWlLk6GJQsqaUBKTNV-1">
          <mxGeometry x="462" y="1046.75" width="40" height="30" as="geometry" />
        </mxCell>
        <mxCell id="uZbULOSG4ekhpRQ3Gt03-40" value="Email" style="swimlane;fontStyle=0;childLayout=stackLayout;horizontal=1;startSize=30;horizontalStack=0;resizeParent=1;resizeParentMax=0;resizeLast=0;collapsible=1;marginBottom=0;whiteSpace=wrap;html=1;fillColor=#f8cecc;strokeColor=#b85450;" vertex="1" parent="WIyWlLk6GJQsqaUBKTNV-1">
          <mxGeometry x="668" y="1022.5" width="140" height="60" as="geometry" />
        </mxCell>
        <mxCell id="uZbULOSG4ekhpRQ3Gt03-41" value="35-36: Notification" style="text;strokeColor=none;fillColor=none;align=left;verticalAlign=middle;spacingLeft=4;spacingRight=4;overflow=hidden;points=[[0,0.5],[1,0.5]];portConstraint=eastwest;rotatable=0;whiteSpace=wrap;html=1;" vertex="1" parent="uZbULOSG4ekhpRQ3Gt03-40">
          <mxGeometry y="30" width="140" height="30" as="geometry" />
        </mxCell>
        <mxCell id="rR9RkJvHvKKIh5RWRJW5-0" value="Update export status change" style="swimlane;fontStyle=0;childLayout=stackLayout;horizontal=1;startSize=30;horizontalStack=0;resizeParent=1;resizeParentMax=0;resizeLast=0;collapsible=1;marginBottom=0;whiteSpace=wrap;html=1;fillColor=#f8cecc;strokeColor=#b85450;" vertex="1" parent="WIyWlLk6GJQsqaUBKTNV-1">
          <mxGeometry x="536" y="862.5" width="140" height="60" as="geometry" />
        </mxCell>
        <mxCell id="rR9RkJvHvKKIh5RWRJW5-1" value="2:UI" style="text;strokeColor=none;fillColor=none;align=left;verticalAlign=middle;spacingLeft=4;spacingRight=4;overflow=hidden;points=[[0,0.5],[1,0.5]];portConstraint=eastwest;rotatable=0;whiteSpace=wrap;html=1;" vertex="1" parent="rR9RkJvHvKKIh5RWRJW5-0">
          <mxGeometry y="30" width="140" height="30" as="geometry" />
        </mxCell>
        <mxCell id="ZPVGJw3H7ybS2-sXotqL-0" value="Hardware Table" style="swimlane;childLayout=stackLayout;resizeParent=1;resizeParentMax=0;startSize=20;html=1;fillColor=#dae8fc;strokeColor=#6c8ebf;" vertex="1" parent="WIyWlLk6GJQsqaUBKTNV-1">
          <mxGeometry x="226.00000000000045" y="40" width="375" height="150" as="geometry" />
        </mxCell>
        <mxCell id="ZPVGJw3H7ybS2-sXotqL-1" value="Field&amp;amp;View" style="swimlane;startSize=20;html=1;fillColor=#f5f5f5;strokeColor=#666666;fontColor=#333333;" vertex="1" parent="ZPVGJw3H7ybS2-sXotqL-0">
          <mxGeometry y="20" width="120" height="130" as="geometry" />
        </mxCell>
        <mxCell id="ZPVGJw3H7ybS2-sXotqL-2" value="2: UI" style="text;html=1;align=center;verticalAlign=middle;resizable=0;points=[];autosize=1;strokeColor=none;fillColor=none;" vertex="1" parent="ZPVGJw3H7ybS2-sXotqL-1">
          <mxGeometry x="34.999999999999545" y="50" width="50" height="30" as="geometry" />
        </mxCell>
        <mxCell id="ZPVGJw3H7ybS2-sXotqL-3" value="Hex Update" style="swimlane;startSize=20;html=1;fillColor=#f5f5f5;fontColor=#333333;strokeColor=#666666;" vertex="1" parent="ZPVGJw3H7ybS2-sXotqL-0">
          <mxGeometry x="120" y="20" width="125" height="130" as="geometry" />
        </mxCell>
        <mxCell id="ZPVGJw3H7ybS2-sXotqL-4" value="20-21: Business rule" style="text;html=1;align=center;verticalAlign=middle;resizable=0;points=[];autosize=1;strokeColor=none;fillColor=none;" vertex="1" parent="ZPVGJw3H7ybS2-sXotqL-3">
          <mxGeometry x="-4.547473508864641e-13" y="50" width="130" height="30" as="geometry" />
        </mxCell>
        <mxCell id="ZPVGJw3H7ybS2-sXotqL-5" value="Print" style="swimlane;startSize=20;html=1;fillColor=#f5f5f5;fontColor=#333333;strokeColor=#666666;" vertex="1" parent="ZPVGJw3H7ybS2-sXotqL-0">
          <mxGeometry x="245" y="20" width="130" height="130" as="geometry" />
        </mxCell>
        <mxCell id="ZPVGJw3H7ybS2-sXotqL-6" value="8-10: UI Action&lt;div&gt;25-19:UI Pages&lt;br&gt;&lt;/div&gt;&lt;div&gt;30: UI Scripts&lt;/div&gt;" style="text;html=1;align=center;verticalAlign=middle;resizable=0;points=[];autosize=1;strokeColor=none;fillColor=none;" vertex="1" parent="ZPVGJw3H7ybS2-sXotqL-5">
          <mxGeometry x="10" y="35" width="110" height="60" as="geometry" />
        </mxCell>
      </root>
    </mxGraphModel>
  </diagram>
  <diagram id="lgDpf36r8qzRKhrkxhaX" name="모바일&amp;Properties">
    <mxGraphModel dx="1234" dy="1052" grid="1" gridSize="10" guides="1" tooltips="1" connect="1" arrows="1" fold="1" page="1" pageScale="1" pageWidth="827" pageHeight="1169" math="0" shadow="0">
      <root>
        <mxCell id="0" />
        <mxCell id="1" parent="0" />
        <mxCell id="c8GXw6f7EJIOtovMUnLR-1" value="OAuth Token" style="swimlane;fontStyle=0;childLayout=stackLayout;horizontal=1;startSize=26;fillColor=#dae8fc;horizontalStack=0;resizeParent=1;resizeParentMax=0;resizeLast=0;collapsible=1;marginBottom=0;html=1;strokeColor=#6c8ebf;" vertex="1" parent="1">
          <mxGeometry x="210" y="50" width="374" height="52" as="geometry" />
        </mxCell>
        <mxCell id="c8GXw6f7EJIOtovMUnLR-2" value="45-47: Application Registry" style="text;strokeColor=none;fillColor=none;align=left;verticalAlign=top;spacingLeft=4;spacingRight=4;overflow=hidden;rotatable=0;points=[[0,0.5],[1,0.5]];portConstraint=eastwest;whiteSpace=wrap;html=1;" vertex="1" parent="c8GXw6f7EJIOtovMUnLR-1">
          <mxGeometry y="26" width="374" height="26" as="geometry" />
        </mxCell>
        <mxCell id="5Z8yUiG-Q24mlQPagwx7-3" style="edgeStyle=orthogonalEdgeStyle;rounded=0;orthogonalLoop=1;jettySize=auto;html=1;exitX=0.5;exitY=1;exitDx=0;exitDy=0;" edge="1" parent="1" source="5Z8yUiG-Q24mlQPagwx7-1" target="5Z8yUiG-Q24mlQPagwx7-2">
          <mxGeometry relative="1" as="geometry" />
        </mxCell>
        <mxCell id="5Z8yUiG-Q24mlQPagwx7-1" value="Due diligence ticket plan" style="rounded=1;whiteSpace=wrap;html=1;fontSize=12;glass=0;strokeWidth=1;shadow=0;fillColor=#dae8fc;strokeColor=#6c8ebf;" vertex="1" parent="1">
          <mxGeometry x="330" y="180" width="170" height="60" as="geometry" />
        </mxCell>
        <mxCell id="5Z8yUiG-Q24mlQPagwx7-2" value="Mobile" style="rounded=1;whiteSpace=wrap;html=1;fontSize=12;glass=0;strokeWidth=1;shadow=0;fillColor=#dae8fc;strokeColor=#6c8ebf;" vertex="1" parent="1">
          <mxGeometry x="330" y="296" width="170" height="60" as="geometry" />
        </mxCell>
        <mxCell id="bZb2ROfiZYJ3v-dBQ0Gd-1" value="Mobile" style="swimlane;fontStyle=0;childLayout=stackLayout;horizontal=1;startSize=30;horizontalStack=0;resizeParent=1;resizeParentMax=0;resizeLast=0;collapsible=1;marginBottom=0;whiteSpace=wrap;html=1;fillColor=#dae8fc;strokeColor=#6c8ebf;" vertex="1" parent="1">
          <mxGeometry x="547.5" y="296" width="140" height="60" as="geometry" />
        </mxCell>
        <mxCell id="bZb2ROfiZYJ3v-dBQ0Gd-2" value="11-16: Rest API" style="text;strokeColor=none;fillColor=none;align=left;verticalAlign=middle;spacingLeft=4;spacingRight=4;overflow=hidden;points=[[0,0.5],[1,0.5]];portConstraint=eastwest;rotatable=0;whiteSpace=wrap;html=1;" vertex="1" parent="bZb2ROfiZYJ3v-dBQ0Gd-1">
          <mxGeometry y="30" width="140" height="30" as="geometry" />
        </mxCell>
      </root>
    </mxGraphModel>
  </diagram>
</mxfile>
